<svg width="16" height="16" viewBox="0 0 16 16" fill="none" xmlns="http://www.w3.org/2000/svg">
<path d="M0 4.25911C0.687296 6.69024 1.15184 9.1789 1.38788 11.6943C3.7377 12.2404 6.13091 13.1098 8.05455 14.6065C8.05455 12.2756 8.05455 6.7842 8.05455 6.7842C7.1387 6.06761 6.11619 5.49901 5.02424 5.09911C3.4153 4.51293 1.71212 4.22817 0 4.25911Z" fill="#103867"/>
<path d="M8.05363 6.56086C8.05363 6.56086 5.69291 4.13395 0.717877 3.93977L0.525391 3.1228C0.525391 3.1228 6.33339 3.46898 8.05363 6.56086Z" fill="#FDC800"/>
<path d="M8.05359 6.12945C8.05359 6.12945 6.13723 3.28097 1.21093 2.784L1.05408 2C1.05408 2 5.75807 2.44485 8.05359 6.12945Z" fill="#BEC5D0"/>
<path d="M16 4.25934C15.3126 6.69046 14.8481 9.17912 14.6121 11.6945C12.262 12.2407 9.86907 13.11 7.94543 14.6067C7.94543 12.2758 7.94543 6.78443 7.94543 6.78443C8.86129 6.06793 9.88381 5.49941 10.9757 5.09958C12.5847 4.51334 14.2878 4.2285 16 4.25934Z" fill="#002147"/>
<path d="M7.94617 6.56086C7.94617 6.56086 10.3069 4.13395 15.2819 3.93977L15.4744 3.1228C15.4744 3.1228 9.66665 3.46923 7.94617 6.56086Z" fill="#FDC800"/>
<path d="M7.94617 6.1297C7.94617 6.1297 9.86253 3.28121 14.7886 2.78424L14.9454 2.00024C14.9454 2.00024 10.2414 2.44485 7.94617 6.1297Z" fill="#BEC5D0"/>
</svg>
