<svg width="16" height="16" viewBox="0 0 16 16" fill="none" xmlns="http://www.w3.org/2000/svg">
<path fill-rule="evenodd" clip-rule="evenodd" d="M0.800003 2.62857C0.800003 2.35577 0.908371 2.09416 1.10126 1.90125C1.29416 1.70837 1.55578 1.6 1.82857 1.6H14.1714C14.4442 1.6 14.7058 1.70837 14.8987 1.90125C15.0916 2.09416 15.2 2.35577 15.2 2.62857C15.2 2.90137 15.0916 3.16298 14.8987 3.35589C14.7058 3.54877 14.4442 3.65714 14.1714 3.65714H1.82857C1.55578 3.65714 1.29416 3.54877 1.10126 3.35589C0.908371 3.16298 0.800003 2.90137 0.800003 2.62857ZM0.800003 7.77143C0.800003 7.49863 0.908371 7.23701 1.10126 7.04411C1.29416 6.85122 1.55578 6.74285 1.82857 6.74285H8C8.2728 6.74285 8.53448 6.85122 8.72728 7.04411C8.92016 7.23701 9.02856 7.49863 9.02856 7.77143C9.02856 8.04424 8.92016 8.30584 8.72728 8.49872C8.53448 8.6916 8.2728 8.8 8 8.8H1.82857C1.55578 8.8 1.29416 8.6916 1.10126 8.49872C0.908371 8.30584 0.800003 8.04424 0.800003 7.77143ZM0.800003 12.9143C0.800003 12.6415 0.908371 12.3798 1.10126 12.187C1.29416 11.9942 1.55578 11.8857 1.82857 11.8857H14.1714C14.4442 11.8857 14.7058 11.9942 14.8987 12.187C15.0916 12.3798 15.2 12.6415 15.2 12.9143C15.2 13.187 15.0916 13.4487 14.8987 13.6416C14.7058 13.8345 14.4442 13.9429 14.1714 13.9429H1.82857C1.55578 13.9429 1.29416 13.8345 1.10126 13.6416C0.908371 13.4487 0.800003 13.187 0.800003 12.9143Z" fill="#212529"/>
</svg>
