<svg width="30" height="30" viewBox="0 0 30 30" fill="none" xmlns="http://www.w3.org/2000/svg">
<path d="M12.837 15.0001L2.44791 4.61103C1.85057 4.01369 1.85082 3.04533 2.44791 2.44801C3.04525 1.85066 4.01361 1.85066 4.61093 2.44801L15 12.8371L25.3891 2.44801C25.9864 1.85066 26.9548 1.85066 27.5521 2.44801C28.1494 3.04535 28.1494 4.01371 27.5521 4.61103L17.163 15.0001L27.5521 25.3892C28.1492 25.9865 28.1492 26.9549 27.5521 27.5522C26.9547 28.1493 25.9864 28.1493 25.3891 27.5522L15 17.1631L4.61093 27.5522C4.01359 28.1493 3.04523 28.1493 2.44791 27.5522C1.85082 26.9548 1.85082 25.9865 2.44791 25.3892L12.837 15.0001Z" fill="#212529"/>
</svg>
